<svg id="Layer_1" enable-background="new 0 0 511.448 511.448" height="512" viewBox="0 0 511.448 511.448" width="512" xmlns="http://www.w3.org/2000/svg"><path d="m436.508 74.94c-99.913-99.913-261.64-99.928-361.567 0-99.913 99.913-99.928 261.64 0 361.567 99.913 99.913 261.64 99.928 361.567 0 99.912-99.912 99.927-261.639 0-361.567z" fill="#ffebd2"/><path d="m231.344 1.207c-120.675 11.426-217.174 106.928-229.875 227.456-1.381 13.103 9.53 24.246 22.665 23.125 121.147-10.31 218.473-106.262 230.094-227.673 1.256-13.116-9.755-24.145-22.884-22.908z" fill="#fff3e4"/><g fill="#c79a83"><path d="m298.39 160.057c-11.598 0-21 9.402-21 21v149.333c0 11.598 9.402 21 21 21s21-9.402 21-21v-149.333c0-11.598-9.401-21-21-21z"/><path d="m213.057 160.057c-11.598 0-21 9.402-21 21v149.333c0 11.598 9.402 21 21 21s21-9.402 21-21v-149.333c0-11.598-9.401-21-21-21z"/></g></svg>